<mxfile host="app.diagrams.net" agent="Mozilla/5.0 (Macintosh; Intel Mac OS X 10_15_7) AppleWebKit/537.36 (KHTML, like Gecko) Chrome/135.0.0.0 Safari/537.36" version="26.2.12">
  <diagram name="第 1 页" id="7h_G0aQxl2JMN4Xn2NxM">
    <mxGraphModel dx="1300" dy="755" grid="1" gridSize="10" guides="1" tooltips="1" connect="1" arrows="1" fold="1" page="1" pageScale="1" pageWidth="2339" pageHeight="3300" math="0" shadow="0">
      <root>
        <mxCell id="0" />
        <mxCell id="1" parent="0" />
        <mxCell id="R9wjjZKl0YyecbND7q1j-1" value="" style="rounded=1;whiteSpace=wrap;html=1;fillColor=#ffe6cc;strokeColor=#d79b00;" vertex="1" parent="1">
          <mxGeometry x="300" y="210" width="625" height="260" as="geometry" />
        </mxCell>
        <mxCell id="R9wjjZKl0YyecbND7q1j-2" value="" style="edgeStyle=orthogonalEdgeStyle;rounded=0;orthogonalLoop=1;jettySize=auto;html=1;entryX=0.5;entryY=0;entryDx=0;entryDy=0;" edge="1" parent="1" source="R9wjjZKl0YyecbND7q1j-6" target="R9wjjZKl0YyecbND7q1j-38">
          <mxGeometry relative="1" as="geometry" />
        </mxCell>
        <mxCell id="R9wjjZKl0YyecbND7q1j-3" value="Act." style="edgeLabel;html=1;align=center;verticalAlign=middle;resizable=0;points=[];" vertex="1" connectable="0" parent="R9wjjZKl0YyecbND7q1j-2">
          <mxGeometry x="0.0356" y="1" relative="1" as="geometry">
            <mxPoint as="offset" />
          </mxGeometry>
        </mxCell>
        <mxCell id="R9wjjZKl0YyecbND7q1j-4" value="" style="edgeStyle=orthogonalEdgeStyle;rounded=0;orthogonalLoop=1;jettySize=auto;html=1;entryX=0.006;entryY=0.369;entryDx=0;entryDy=0;entryPerimeter=0;" edge="1" parent="1" source="R9wjjZKl0YyecbND7q1j-6" target="R9wjjZKl0YyecbND7q1j-1">
          <mxGeometry relative="1" as="geometry" />
        </mxCell>
        <mxCell id="R9wjjZKl0YyecbND7q1j-5" value="Obs." style="edgeLabel;html=1;align=center;verticalAlign=middle;resizable=0;points=[];" vertex="1" connectable="0" parent="R9wjjZKl0YyecbND7q1j-4">
          <mxGeometry x="-0.342" y="5" relative="1" as="geometry">
            <mxPoint as="offset" />
          </mxGeometry>
        </mxCell>
        <mxCell id="R9wjjZKl0YyecbND7q1j-6" value="" style="rounded=1;whiteSpace=wrap;html=1;fillColor=#fff2cc;strokeColor=#d6b656;" vertex="1" parent="1">
          <mxGeometry x="60" y="210" width="170" height="190" as="geometry" />
        </mxCell>
        <mxCell id="R9wjjZKl0YyecbND7q1j-7" value="Simulator" style="ellipse;whiteSpace=wrap;html=1;aspect=fixed;fillColor=#f5f5f5;fontColor=#333333;strokeColor=#666666;" vertex="1" parent="1">
          <mxGeometry x="105" y="265" width="80" height="80" as="geometry" />
        </mxCell>
        <mxCell id="R9wjjZKl0YyecbND7q1j-8" value="&lt;font style=&quot;font-size: 18px;&quot;&gt;Environment&lt;/font&gt;" style="text;html=1;align=center;verticalAlign=middle;whiteSpace=wrap;rounded=0;" vertex="1" parent="1">
          <mxGeometry x="115" y="220" width="60" height="30" as="geometry" />
        </mxCell>
        <mxCell id="R9wjjZKl0YyecbND7q1j-9" value="" style="edgeStyle=orthogonalEdgeStyle;rounded=0;orthogonalLoop=1;jettySize=auto;html=1;" edge="1" parent="1" source="R9wjjZKl0YyecbND7q1j-10" target="R9wjjZKl0YyecbND7q1j-15">
          <mxGeometry relative="1" as="geometry" />
        </mxCell>
        <mxCell id="R9wjjZKl0YyecbND7q1j-10" value="Communication Module" style="rounded=1;whiteSpace=wrap;html=1;" vertex="1" parent="1">
          <mxGeometry x="345" y="260" width="120" height="60" as="geometry" />
        </mxCell>
        <mxCell id="R9wjjZKl0YyecbND7q1j-11" value="" style="edgeStyle=orthogonalEdgeStyle;rounded=0;orthogonalLoop=1;jettySize=auto;html=1;entryX=0.5;entryY=0;entryDx=0;entryDy=0;" edge="1" parent="1" source="R9wjjZKl0YyecbND7q1j-15" target="R9wjjZKl0YyecbND7q1j-20">
          <mxGeometry relative="1" as="geometry">
            <mxPoint x="825" y="360" as="targetPoint" />
          </mxGeometry>
        </mxCell>
        <mxCell id="R9wjjZKl0YyecbND7q1j-12" value="dataset" style="edgeLabel;html=1;align=center;verticalAlign=middle;resizable=0;points=[];" vertex="1" connectable="0" parent="R9wjjZKl0YyecbND7q1j-11">
          <mxGeometry x="-0.3323" y="2" relative="1" as="geometry">
            <mxPoint as="offset" />
          </mxGeometry>
        </mxCell>
        <mxCell id="R9wjjZKl0YyecbND7q1j-13" value="" style="edgeStyle=orthogonalEdgeStyle;rounded=0;orthogonalLoop=1;jettySize=auto;html=1;" edge="1" parent="1" source="R9wjjZKl0YyecbND7q1j-15" target="R9wjjZKl0YyecbND7q1j-25">
          <mxGeometry relative="1" as="geometry" />
        </mxCell>
        <mxCell id="R9wjjZKl0YyecbND7q1j-14" value="State Description" style="edgeLabel;html=1;align=center;verticalAlign=middle;resizable=0;points=[];" vertex="1" connectable="0" parent="R9wjjZKl0YyecbND7q1j-13">
          <mxGeometry x="-0.0194" y="-2" relative="1" as="geometry">
            <mxPoint as="offset" />
          </mxGeometry>
        </mxCell>
        <mxCell id="R9wjjZKl0YyecbND7q1j-15" value="Memory Module" style="rounded=1;whiteSpace=wrap;html=1;" vertex="1" parent="1">
          <mxGeometry x="565" y="260" width="120" height="60" as="geometry" />
        </mxCell>
        <mxCell id="R9wjjZKl0YyecbND7q1j-16" value="" style="edgeStyle=orthogonalEdgeStyle;rounded=0;orthogonalLoop=1;jettySize=auto;html=1;entryX=0.5;entryY=0;entryDx=0;entryDy=0;" edge="1" parent="1" source="R9wjjZKl0YyecbND7q1j-20" target="R9wjjZKl0YyecbND7q1j-44">
          <mxGeometry relative="1" as="geometry">
            <mxPoint x="970" y="270" as="targetPoint" />
            <Array as="points">
              <mxPoint x="850" y="290" />
              <mxPoint x="1165" y="290" />
            </Array>
          </mxGeometry>
        </mxCell>
        <mxCell id="R9wjjZKl0YyecbND7q1j-17" value="DPO GRPO" style="edgeLabel;html=1;align=center;verticalAlign=middle;resizable=0;points=[];" vertex="1" connectable="0" parent="R9wjjZKl0YyecbND7q1j-16">
          <mxGeometry x="0.1068" y="-3" relative="1" as="geometry">
            <mxPoint x="-44" y="-8" as="offset" />
          </mxGeometry>
        </mxCell>
        <mxCell id="R9wjjZKl0YyecbND7q1j-18" value="" style="edgeStyle=orthogonalEdgeStyle;rounded=0;orthogonalLoop=1;jettySize=auto;html=1;" edge="1" parent="1" source="R9wjjZKl0YyecbND7q1j-20">
          <mxGeometry relative="1" as="geometry">
            <mxPoint x="1165" y="380" as="targetPoint" />
            <Array as="points">
              <mxPoint x="850" y="410" />
              <mxPoint x="1165" y="410" />
            </Array>
          </mxGeometry>
        </mxCell>
        <mxCell id="R9wjjZKl0YyecbND7q1j-19" value="SFT IO" style="edgeLabel;html=1;align=center;verticalAlign=middle;resizable=0;points=[];" vertex="1" connectable="0" parent="R9wjjZKl0YyecbND7q1j-18">
          <mxGeometry x="-0.1567" y="-3" relative="1" as="geometry">
            <mxPoint as="offset" />
          </mxGeometry>
        </mxCell>
        <mxCell id="R9wjjZKl0YyecbND7q1j-20" value="Traning Module" style="rounded=1;whiteSpace=wrap;html=1;" vertex="1" parent="1">
          <mxGeometry x="765" y="310" width="120" height="60" as="geometry" />
        </mxCell>
        <mxCell id="R9wjjZKl0YyecbND7q1j-21" value="" style="edgeStyle=orthogonalEdgeStyle;rounded=0;orthogonalLoop=1;jettySize=auto;html=1;" edge="1" parent="1" source="R9wjjZKl0YyecbND7q1j-25" target="R9wjjZKl0YyecbND7q1j-28">
          <mxGeometry relative="1" as="geometry" />
        </mxCell>
        <mxCell id="R9wjjZKl0YyecbND7q1j-22" value="High-level&lt;div&gt;Plan&lt;/div&gt;" style="edgeLabel;html=1;align=center;verticalAlign=middle;resizable=0;points=[];" vertex="1" connectable="0" parent="R9wjjZKl0YyecbND7q1j-21">
          <mxGeometry x="0.1533" y="1" relative="1" as="geometry">
            <mxPoint as="offset" />
          </mxGeometry>
        </mxCell>
        <mxCell id="R9wjjZKl0YyecbND7q1j-23" value="" style="edgeStyle=orthogonalEdgeStyle;rounded=0;orthogonalLoop=1;jettySize=auto;html=1;entryX=0.5;entryY=1;entryDx=0;entryDy=0;" edge="1" parent="1" source="R9wjjZKl0YyecbND7q1j-25" target="R9wjjZKl0YyecbND7q1j-20">
          <mxGeometry relative="1" as="geometry">
            <mxPoint x="825" y="410" as="targetPoint" />
          </mxGeometry>
        </mxCell>
        <mxCell id="R9wjjZKl0YyecbND7q1j-24" value="evaluation" style="edgeLabel;html=1;align=center;verticalAlign=middle;resizable=0;points=[];" vertex="1" connectable="0" parent="R9wjjZKl0YyecbND7q1j-23">
          <mxGeometry x="-0.2333" y="-5" relative="1" as="geometry">
            <mxPoint as="offset" />
          </mxGeometry>
        </mxCell>
        <mxCell id="R9wjjZKl0YyecbND7q1j-25" value="Reasoning Module" style="rounded=1;whiteSpace=wrap;html=1;" vertex="1" parent="1">
          <mxGeometry x="565" y="380" width="120" height="60" as="geometry" />
        </mxCell>
        <mxCell id="R9wjjZKl0YyecbND7q1j-26" value="" style="edgeStyle=orthogonalEdgeStyle;rounded=0;orthogonalLoop=1;jettySize=auto;html=1;entryX=0.5;entryY=0;entryDx=0;entryDy=0;" edge="1" parent="1" source="R9wjjZKl0YyecbND7q1j-28" target="R9wjjZKl0YyecbND7q1j-31">
          <mxGeometry relative="1" as="geometry">
            <Array as="points">
              <mxPoint x="405" y="500" />
              <mxPoint x="615.0000000000001" y="500" />
            </Array>
          </mxGeometry>
        </mxCell>
        <mxCell id="R9wjjZKl0YyecbND7q1j-27" value="planning" style="edgeLabel;html=1;align=center;verticalAlign=middle;resizable=0;points=[];" vertex="1" connectable="0" parent="R9wjjZKl0YyecbND7q1j-26">
          <mxGeometry x="-0.0107" y="1" relative="1" as="geometry">
            <mxPoint as="offset" />
          </mxGeometry>
        </mxCell>
        <mxCell id="R9wjjZKl0YyecbND7q1j-28" value="Planning Module" style="rounded=1;whiteSpace=wrap;html=1;" vertex="1" parent="1">
          <mxGeometry x="345" y="380" width="120" height="60" as="geometry" />
        </mxCell>
        <mxCell id="R9wjjZKl0YyecbND7q1j-29" value="" style="edgeStyle=orthogonalEdgeStyle;rounded=0;orthogonalLoop=1;jettySize=auto;html=1;" edge="1" parent="1" source="R9wjjZKl0YyecbND7q1j-31">
          <mxGeometry relative="1" as="geometry">
            <mxPoint x="230" y="335" as="targetPoint" />
            <Array as="points">
              <mxPoint x="280" y="555" />
              <mxPoint x="280" y="335" />
            </Array>
          </mxGeometry>
        </mxCell>
        <mxCell id="R9wjjZKl0YyecbND7q1j-30" value="Act." style="edgeLabel;html=1;align=center;verticalAlign=middle;resizable=0;points=[];" vertex="1" connectable="0" parent="R9wjjZKl0YyecbND7q1j-29">
          <mxGeometry x="0.7111" relative="1" as="geometry">
            <mxPoint x="-13" as="offset" />
          </mxGeometry>
        </mxCell>
        <mxCell id="R9wjjZKl0YyecbND7q1j-31" value="" style="rounded=1;whiteSpace=wrap;html=1;fillColor=#e1d5e7;strokeColor=#9673a6;" vertex="1" parent="1">
          <mxGeometry x="305" y="520" width="620" height="110" as="geometry" />
        </mxCell>
        <mxCell id="R9wjjZKl0YyecbND7q1j-32" value="Code Agent" style="rounded=1;whiteSpace=wrap;html=1;" vertex="1" parent="1">
          <mxGeometry x="325" y="545" width="120" height="60" as="geometry" />
        </mxCell>
        <mxCell id="R9wjjZKl0YyecbND7q1j-33" value="Research Agent" style="rounded=1;whiteSpace=wrap;html=1;" vertex="1" parent="1">
          <mxGeometry x="475" y="545" width="120" height="60" as="geometry" />
        </mxCell>
        <mxCell id="R9wjjZKl0YyecbND7q1j-34" value="Economy Agent" style="rounded=1;whiteSpace=wrap;html=1;" vertex="1" parent="1">
          <mxGeometry x="625.0000000000001" y="545" width="120" height="60" as="geometry" />
        </mxCell>
        <mxCell id="R9wjjZKl0YyecbND7q1j-35" value="Web Agent" style="rounded=1;whiteSpace=wrap;html=1;" vertex="1" parent="1">
          <mxGeometry x="785" y="545" width="120" height="60" as="geometry" />
        </mxCell>
        <mxCell id="R9wjjZKl0YyecbND7q1j-36" value="" style="edgeStyle=orthogonalEdgeStyle;rounded=0;orthogonalLoop=1;jettySize=auto;html=1;entryX=0.308;entryY=1.013;entryDx=0;entryDy=0;entryPerimeter=0;" edge="1" parent="1" target="R9wjjZKl0YyecbND7q1j-6">
          <mxGeometry relative="1" as="geometry">
            <mxPoint x="112" y="448" as="sourcePoint" />
          </mxGeometry>
        </mxCell>
        <mxCell id="R9wjjZKl0YyecbND7q1j-37" value="Obs." style="edgeLabel;html=1;align=center;verticalAlign=middle;resizable=0;points=[];" vertex="1" connectable="0" parent="R9wjjZKl0YyecbND7q1j-36">
          <mxGeometry x="-0.0225" relative="1" as="geometry">
            <mxPoint as="offset" />
          </mxGeometry>
        </mxCell>
        <mxCell id="R9wjjZKl0YyecbND7q1j-38" value="" style="rounded=1;whiteSpace=wrap;html=1;fillColor=#dae8fc;strokeColor=#6c8ebf;" vertex="1" parent="1">
          <mxGeometry x="60" y="450" width="170" height="190" as="geometry" />
        </mxCell>
        <mxCell id="R9wjjZKl0YyecbND7q1j-39" value="" style="endArrow=none;dashed=1;html=1;dashPattern=1 3;strokeWidth=2;rounded=0;" edge="1" parent="1">
          <mxGeometry width="50" height="50" relative="1" as="geometry">
            <mxPoint x="90" y="625" as="sourcePoint" />
            <mxPoint x="210" y="465" as="targetPoint" />
          </mxGeometry>
        </mxCell>
        <mxCell id="R9wjjZKl0YyecbND7q1j-40" value="&lt;font style=&quot;font-size: 16px;&quot;&gt;Inter Agent&lt;/font&gt;" style="text;html=1;align=center;verticalAlign=middle;whiteSpace=wrap;rounded=0;" vertex="1" parent="1">
          <mxGeometry x="80" y="460" width="90" height="30" as="geometry" />
        </mxCell>
        <mxCell id="R9wjjZKl0YyecbND7q1j-41" value="&lt;font style=&quot;font-size: 16px;&quot;&gt;Human&lt;/font&gt;" style="text;html=1;align=center;verticalAlign=middle;whiteSpace=wrap;rounded=0;" vertex="1" parent="1">
          <mxGeometry x="130" y="570" width="90" height="30" as="geometry" />
        </mxCell>
        <mxCell id="R9wjjZKl0YyecbND7q1j-42" value="&lt;font style=&quot;font-size: 18px;&quot;&gt;Intra Agent&lt;/font&gt;" style="text;html=1;align=center;verticalAlign=middle;whiteSpace=wrap;rounded=0;" vertex="1" parent="1">
          <mxGeometry x="560" y="220" width="110" height="30" as="geometry" />
        </mxCell>
        <mxCell id="R9wjjZKl0YyecbND7q1j-43" value="" style="edgeStyle=orthogonalEdgeStyle;rounded=0;orthogonalLoop=1;jettySize=auto;html=1;" edge="1" parent="1" source="R9wjjZKl0YyecbND7q1j-44">
          <mxGeometry relative="1" as="geometry">
            <mxPoint x="880" y="350" as="targetPoint" />
          </mxGeometry>
        </mxCell>
        <mxCell id="R9wjjZKl0YyecbND7q1j-44" value="&lt;font style=&quot;font-size: 18px;&quot;&gt;Optimizer&lt;/font&gt;" style="rounded=1;whiteSpace=wrap;html=1;fillColor=#d5e8d4;strokeColor=#82b366;" vertex="1" parent="1">
          <mxGeometry x="1100" y="320" width="130" height="60" as="geometry" />
        </mxCell>
      </root>
    </mxGraphModel>
  </diagram>
</mxfile>
